<svg width="4033" height="3025" viewBox="0 0 4033 3025" fill="none" xmlns="http://www.w3.org/2000/svg">
<rect x="75.6635" y="19.7271" width="413.627" height="1342.38" fill="#D9D9D9" fill-opacity="0.5" stroke="#CD07FF" stroke-width="4"/>
<rect x="530.634" y="141.33" width="134.249" height="1219.05" transform="rotate(1.5808 530.634 141.33)" fill="#D9D9D9" fill-opacity="0.5" stroke="#CD07FF" stroke-width="4"/>
<rect x="86.3391" y="1604.35" width="164.893" height="1328.09" transform="rotate(-0.0767265 86.3391 1604.35)" fill="#D9D9D9" fill-opacity="0.5" stroke="#CD07FF" stroke-width="4"/>
<rect x="255.336" y="1693.06" width="144.224" height="1250.73" transform="rotate(-0.0767265 255.336 1693.06)" fill="#D9D9D9" fill-opacity="0.5" stroke="#CD07FF" stroke-width="4"/>
<rect x="406.807" y="1710.67" width="235.217" height="1233.44" transform="rotate(-0.0767265 406.807 1710.67)" fill="#D9D9D9" fill-opacity="0.5" stroke="#CD07FF" stroke-width="4"/>
<rect x="655.67" y="1632.37" width="61.1048" height="1300.07" transform="rotate(-0.0767265 655.67 1632.37)" fill="#D9D9D9" fill-opacity="0.5" stroke="#CD07FF" stroke-width="4"/>
<rect x="729.694" y="1756.2" width="95.9747" height="1186.96" transform="rotate(-0.0767265 729.694 1756.2)" fill="#D9D9D9" fill-opacity="0.5" stroke="#CD07FF" stroke-width="4"/>
<rect x="862.009" y="1794" width="77.9461" height="1149.79" transform="rotate(-0.0767265 862.009 1794)" fill="#D9D9D9" fill-opacity="0.5" stroke="#CD07FF" stroke-width="4"/>
<rect x="956.46" y="1773.91" width="73.3656" height="1172.85" transform="rotate(-0.0767265 956.46 1773.91)" fill="#D9D9D9" fill-opacity="0.5" stroke="#CD07FF" stroke-width="4"/>
<rect x="1050.74" y="1787.9" width="258.598" height="1159.01" transform="rotate(-0.0767265 1050.74 1787.9)" fill="#D9D9D9" fill-opacity="0.5" stroke="#CD07FF" stroke-width="4"/>
<rect x="1340.44" y="1723.05" width="63.4846" height="1223.92" transform="rotate(-0.0767265 1340.44 1723.05)" fill="#D9D9D9" fill-opacity="0.5" stroke="#CD07FF" stroke-width="4"/>
<rect x="1423.06" y="1624.83" width="90.4812" height="1335.43" transform="rotate(-0.0767265 1423.06 1624.83)" fill="#D9D9D9" fill-opacity="0.5" stroke="#CD07FF" stroke-width="4"/>
<rect x="1528.64" y="1647.99" width="68.2081" height="1312.36" transform="rotate(-0.0767265 1528.64 1647.99)" fill="#D9D9D9" fill-opacity="0.5" stroke="#CD07FF" stroke-width="4"/>
<rect x="1616.15" y="1660.44" width="90.4812" height="1300.07" transform="rotate(-0.0767265 1616.15 1660.44)" fill="#D9D9D9" fill-opacity="0.5" stroke="#CD07FF" stroke-width="4"/>
<rect x="1722.61" y="1767.56" width="68.4639" height="1209.68" transform="rotate(-0.0767265 1722.61 1767.56)" fill="#D9D9D9" fill-opacity="0.5" stroke="#CD07FF" stroke-width="4"/>
<rect x="1805.65" y="1665.96" width="63.7495" height="1294.13" transform="rotate(-0.0767265 1805.65 1665.96)" fill="#D9D9D9" fill-opacity="0.5" stroke="#CD07FF" stroke-width="4"/>
<rect x="1870.16" y="1797.16" width="69.9976" height="1163.41" transform="rotate(-0.0767265 1870.16 1797.16)" fill="#D9D9D9" fill-opacity="0.5" stroke="#CD07FF" stroke-width="4"/>
<rect x="1949.98" y="1807.73" width="56.2628" height="1176.99" transform="rotate(-0.0767265 1949.98 1807.73)" fill="#D9D9D9" fill-opacity="0.5" stroke="#CD07FF" stroke-width="4"/>
<rect x="2018.29" y="1907.02" width="42.6417" height="1095.31" transform="rotate(-0.0767265 2018.29 1907.02)" fill="#D9D9D9" fill-opacity="0.5" stroke="#CD07FF" stroke-width="4"/>
<rect x="2130.97" y="1659.71" width="56.2199" height="1342.03" transform="rotate(2.31762 2130.97 1659.71)" fill="#D9D9D9" fill-opacity="0.5" stroke="#CD07FF" stroke-width="4"/>
<rect x="2208.53" y="1660.68" width="104.525" height="1330.8" transform="rotate(2.79298 2208.53 1660.68)" fill="#D9D9D9" fill-opacity="0.5" stroke="#CD07FF" stroke-width="4"/>
<rect x="1.84644" y="2.1489" width="84.9253" height="1195.85" transform="matrix(0.997018 0.0771752 -0.0737988 0.997273 2329.77 1794.89)" fill="#D9D9D9" fill-opacity="0.5" stroke="#CD07FF" stroke-width="4"/>
<rect x="1.8715" y="2.12711" width="76.0053" height="1256.88" transform="matrix(0.997854 0.0654834 -0.0621042 0.99807 2402.43 1734.66)" fill="#D9D9D9" fill-opacity="0.5" stroke="#CD07FF" stroke-width="4"/>
<rect x="-1.95948" y="2.04634" width="90.6364" height="1520.3" transform="matrix(0.0199857 0.9998 -0.999727 0.0233709 3934.63 2808.78)" fill="#D9D9D9" fill-opacity="0.5" stroke="#CD07FF" stroke-width="4"/>
<rect x="-1.97288" y="2.03343" width="100.587" height="1494.47" transform="matrix(0.0134197 0.99991 -0.999859 0.0168053 3934.83 2694.16)" fill="#D9D9D9" fill-opacity="0.5" stroke="#CD07FF" stroke-width="4"/>
<rect x="-1.98683" y="2.0198" width="74.7629" height="1437.78" transform="matrix(0.00653403 0.999979 -0.999951 0.00991996 3870.51 2591.09)" fill="#D9D9D9" fill-opacity="0.5" stroke="#CD07FF" stroke-width="4"/>
<rect x="-1.98624" y="2.02038" width="114.211" height="1398.44" transform="matrix(0.00682641 0.999977 -0.999948 0.0102123 3838.89 2463.9)" fill="#D9D9D9" fill-opacity="0.5" stroke="#CD07FF" stroke-width="4"/>
<rect x="-1.95948" y="2.04634" width="86.7926" height="1435.08" transform="matrix(0.0199857 0.9998 -0.999727 0.0233709 3885.59 2338.5)" fill="#D9D9D9" fill-opacity="0.5" stroke="#CD07FF" stroke-width="4"/>
<rect x="-1.95948" y="2.04634" width="79.1448" height="1324.79" transform="matrix(0.0199857 0.9998 -0.999727 0.0233709 3780 2243.63)" fill="#D9D9D9" fill-opacity="0.5" stroke="#CD07FF" stroke-width="4"/>
<rect x="-1.95948" y="2.04634" width="79.0247" height="1148.17" transform="matrix(0.0199857 0.9998 -0.999727 0.0233709 3610.39 2106)" fill="#D9D9D9" fill-opacity="0.5" stroke="#CD07FF" stroke-width="4"/>
<rect x="-1.95948" y="2.04634" width="20.5087" height="1439.4" transform="matrix(0.0199857 0.9998 -0.999727 0.0233709 3902.05 2214.51)" fill="#D9D9D9" fill-opacity="0.5" stroke="#CD07FF" stroke-width="4"/>
<rect x="-1.95948" y="2.04634" width="20.5087" height="1425.22" transform="matrix(0.0199857 0.9998 -0.999727 0.0233709 3889.87 2185.73)" fill="#D9D9D9" fill-opacity="0.5" stroke="#CD07FF" stroke-width="4"/>
<rect x="702.571" y="137.516" width="171.19" height="1219.05" transform="rotate(1.5808 702.571 137.516)" fill="#D9D9D9" fill-opacity="0.5" stroke="#CD07FF" stroke-width="4"/>
<rect x="911.434" y="14.9485" width="149.734" height="1329.76" transform="rotate(1.5808 911.434 14.9485)" fill="#D9D9D9" fill-opacity="0.5" stroke="#CD07FF" stroke-width="4"/>
<rect x="1065.17" y="204.38" width="66.6203" height="1159.3" fill="#D9D9D9" fill-opacity="0.5" stroke="#CD07FF" stroke-width="4"/>
<rect x="1144.43" y="204.38" width="93.55" height="1159.3" fill="#D9D9D9" fill-opacity="0.5" stroke="#CD07FF" stroke-width="4"/>
<rect x="1250.63" y="204.38" width="88.4842" height="1159.3" fill="#D9D9D9" fill-opacity="0.5" stroke="#CD07FF" stroke-width="4"/>
<rect x="1365.47" y="141.275" width="74.3873" height="1220.83" fill="#D9D9D9" fill-opacity="0.5" stroke="#CD07FF" stroke-width="4"/>
<rect x="1466.22" y="359.438" width="74.3873" height="1004.24" fill="#D9D9D9" fill-opacity="0.5" stroke="#CD07FF" stroke-width="4"/>
<rect x="1566.96" y="412.421" width="122.224" height="951.256" fill="#D9D9D9" fill-opacity="0.5" stroke="#CD07FF" stroke-width="4"/>
<rect x="1715.55" y="63.3594" width="122.224" height="1296.5" fill="#D9D9D9" fill-opacity="0.5" stroke="#CD07FF" stroke-width="4"/>
<rect x="1841.77" y="204.38" width="172.52" height="1159.3" fill="#D9D9D9" fill-opacity="0.5" stroke="#CD07FF" stroke-width="4"/>
<rect x="2021.95" y="226.196" width="131.614" height="1137.48" fill="#D9D9D9" fill-opacity="0.5" stroke="#CD07FF" stroke-width="4"/>
<rect x="2161.22" y="160.747" width="131.614" height="1187.64" fill="#D9D9D9" fill-opacity="0.5" stroke="#CD07FF" stroke-width="4"/>
<rect x="2319.2" y="176.035" width="86.8138" height="1187.64" fill="#D9D9D9" fill-opacity="0.5" stroke="#CD07FF" stroke-width="4"/>
<rect x="2421.08" y="87.2721" width="73.9155" height="1268.23" transform="rotate(1 2421.08 87.2721)" fill="#D9D9D9" fill-opacity="0.5" stroke="#CD07FF" stroke-width="4"/>
<rect x="3200.78" y="97.2472" width="69.3272" height="697.799" transform="rotate(87.5004 3200.78 97.2472)" fill="#D9D9D9" fill-opacity="0.5" stroke="#CD07FF" stroke-width="4"/>
<rect x="2508.26" y="204.414" width="101.229" height="1157.64" transform="rotate(1 2508.26 204.414)" fill="#D9D9D9" fill-opacity="0.5" stroke="#CD07FF" stroke-width="4"/>
<rect x="2610.65" y="224.626" width="87.9525" height="1148.33" transform="rotate(1 2610.65 224.626)" fill="#D9D9D9" fill-opacity="0.5" stroke="#CD07FF" stroke-width="4"/>
<rect x="2702.59" y="361.366" width="87.9525" height="1009.74" transform="rotate(1 2702.59 361.366)" fill="#D9D9D9" fill-opacity="0.5" stroke="#CD07FF" stroke-width="4"/>
<rect x="2794.53" y="345.983" width="94.2227" height="1025.41" transform="rotate(1 2794.53 345.983)" fill="#D9D9D9" fill-opacity="0.5" stroke="#CD07FF" stroke-width="4"/>
<rect x="2913.09" y="208.828" width="127.167" height="1152.83" transform="rotate(1 2913.09 208.828)" fill="#D9D9D9" fill-opacity="0.5" stroke="#CD07FF" stroke-width="4"/>
<rect x="3061.19" y="211.117" width="57.3448" height="1163.45" transform="rotate(1 3061.19 211.117)" fill="#D9D9D9" fill-opacity="0.5" stroke="#CD07FF" stroke-width="4"/>
<rect x="3130.36" y="219.173" width="64.9578" height="1149.48" transform="rotate(1 3130.36 219.173)" fill="#D9D9D9" fill-opacity="0.5" stroke="#CD07FF" stroke-width="4"/>
<rect x="3196.37" y="170.454" width="34.8338" height="1197.5" transform="rotate(1 3196.37 170.454)" fill="#D9D9D9" fill-opacity="0.5" stroke="#CD07FF" stroke-width="4"/>
<rect x="3235.23" y="49.8379" width="71.2036" height="1318.77" fill="#D9D9D9" fill-opacity="0.5" stroke="#CD07FF" stroke-width="4"/>
</svg>
